Charlottes Web (2006) (Dutch)(MPEG-4)(IPONE)



Verenigde Staten
Familie / Fantasy
97 minuten

geregisseerd door Gary Winick
met Dakota Fanning, de stemmen van Julia Roberts en Kathy Bates

Het varkentje Wilbur wordt getergd door de zenuwen nu het einde van het seizoen nadert op de boerderij. Hij heeft sterke vermoedens dat hij nu op de eettafel zal belanden. Wilbur schakelt de hulp in van Charlotte, een spin die in zijn hok leeft, om zijn leven veilig te stellen. Ze bedenken een plan waarbij iedereen zal weten dat Wilbur niet zomaar een varkentje is en derhalve gered moet worden.

English

Wilbur the pig is scared of the end of the season, because he knows that come that time, he will end up on the dinner table. He hatches a plan with Charlotte, a spider that lives in his pen, to ensure that this will never happen. 


DVD Info:
Bron: DVD 9 Pal
Audio : Dutch
Formaat : MPEG-4
Genre: Fantasiefilm / Familiefilm

Code
Format                           : MPEG-4
Format profile                   : Base Media
Codec ID                         : isom
File size                        : 1.06 GiB
Duration                         : 1h 33mn
Overall bit rate                 : 1 632 Kbps


Video
ID                               : 1
Format                           : MPEG-4 Visual
Format profile                   : Simple@L1
Format settings, BVOP            : No
Format settings, QPel            : No
Format settings, GMC             : No warppoints
Format settings, Matrix          : Default (H.263)
Codec ID                         : 20
Duration                         : 1h 33mn
Bit rate mode                    : Variable
Bit rate                         : 1 500 Kbps
Width                            : 720 pixels
Height                           : 406 pixels
Display aspect ratio             : 16/9
Frame rate mode                  : Constant
Frame rate                       : 25.000 fps
Resolution                       : 24 bits
Colorimetry                      : 4:2:0
Scan type                        : Progressive
Bits/(Pixel*Frame)               : 0.205
Stream size                      : 998 MiB (92%)
Writing library                  : Lavc51.40.4


Audio
ID                               : 2
Format                           : AAC
Format/Info                      : Advanced Audio Codec
Format version                   : Version 4
Format profile                   : LC
Format settings, SBR             : No
Codec ID                         : 40
Duration                         : 1h 33mn
Bit rate mode                    : Variable
Bit rate                         : 128 Kbps
Channel(s)                       : 2 channels
Channel positions                : L R
Sampling rate                    : 48.0 KHz
Resolution                       : 16 bits
Stream size                      : 85.1 MiB (8%) 

Weblink : http://moviemeter.nl/film/31033 
Weblink : http://www.imdb.com/title/tt0413895


***************************************** 


Brought to you by 
Pioen
2Lions Team




2Lions-Team for all your Dutch MOVIES and more 

*****************************************

DON T HIT AND RUN Niet gelijk afhaken als de film binnen is blijf seeden.